<?xml version="1.0" encoding="UTF-8" standalone="no"?>
<!-- Created with Inkscape (http://www.inkscape.org/) -->

<svg
   width="100mm"
   height="100mm"
   viewBox="0 0 100 100"
   version="1.1"
   id="svg5"
   xml:space="preserve"
   inkscape:version="1.2.2 (b0a8486541, 2022-12-01)"
   sodipodi:docname="cosanet_logo.svg"
   inkscape:export-filename="cosanet_logo_400.png"
   inkscape:export-xdpi="101.6"
   inkscape:export-ydpi="101.6"
   xmlns:inkscape="http://www.inkscape.org/namespaces/inkscape"
   xmlns:sodipodi="http://sodipodi.sourceforge.net/DTD/sodipodi-0.dtd"
   xmlns:xlink="http://www.w3.org/1999/xlink"
   xmlns="http://www.w3.org/2000/svg"
   xmlns:svg="http://www.w3.org/2000/svg"><sodipodi:namedview
     id="namedview7"
     pagecolor="#ffffff"
     bordercolor="#666666"
     borderopacity="1.0"
     inkscape:showpageshadow="2"
     inkscape:pageopacity="0.0"
     inkscape:pagecheckerboard="0"
     inkscape:deskcolor="#d1d1d1"
     inkscape:document-units="mm"
     showgrid="false"
     showguides="true"
     inkscape:zoom="1.4142136"
     inkscape:cx="173.24115"
     inkscape:cy="200.11121"
     inkscape:window-width="1192"
     inkscape:window-height="955"
     inkscape:window-x="448"
     inkscape:window-y="58"
     inkscape:window-maximized="0"
     inkscape:current-layer="layer1" /><defs
     id="defs2"><linearGradient
       inkscape:collect="always"
       id="linearGradient54632"><stop
         style="stop-color:#003b55;stop-opacity:1;"
         offset="0"
         id="stop54630" /><stop
         style="stop-color:#00b1f9;stop-opacity:1;"
         offset="1"
         id="stop54628" /></linearGradient><linearGradient
       inkscape:collect="always"
       id="linearGradient41082"><stop
         style="stop-color:#00b1f9;stop-opacity:1;"
         offset="0.41421792"
         id="stop41078" /><stop
         style="stop-color:#00d7c5;stop-opacity:1;"
         offset="0.65043563"
         id="stop54626" /><stop
         style="stop-color:#00fe92;stop-opacity:1;"
         offset="0.83752865"
         id="stop41080" /></linearGradient><linearGradient
       inkscape:collect="always"
       xlink:href="#linearGradient41082"
       id="linearGradient41084"
       x1="4.1214771"
       y1="23.382164"
       x2="95.224991"
       y2="76.112434"
       gradientUnits="userSpaceOnUse" /><linearGradient
       inkscape:collect="always"
       xlink:href="#linearGradient54632"
       id="linearGradient54634"
       x1="53.024902"
       y1="86.458969"
       x2="35.304375"
       y2="17.830881"
       gradientUnits="userSpaceOnUse" /></defs><g
     inkscape:label="Calque 1"
     inkscape:groupmode="layer"
     id="layer1"><rect
       style="opacity:1;fill:#001427;fill-opacity:1;stroke:none;stroke-width:0.249357;stroke-linecap:butt;stroke-linejoin:round;stroke-dasharray:none;stroke-opacity:1;stop-color:#000000"
       id="rect42742"
       width="100"
       height="100"
       x="-1.9073486e-06"
       y="0" /><path
       style="color:#000000;fill:url(#linearGradient41084);stroke-linecap:round;stroke-linejoin:round;-inkscape-stroke:none;stroke:none;fill-opacity:1"
       d="M 48.478516,-2.6347656 5.1777344,22.365234 A 3.0436042,3.0436042 0 0 0 3.65625,25 v 50 a 3.0436042,3.0436042 0 0 0 1.5214844,2.634766 L 48.478516,102.63477 a 3.0436042,3.0436042 0 0 0 3.042968,0 L 94.822266,77.634766 A 3.0436042,3.0436042 0 0 0 96.34375,75 V 25 A 3.0436042,3.0436042 0 0 0 94.822266,22.365234 L 51.521484,-2.6347656 a 3.0436042,3.0436042 0 0 0 -3.042968,0 z M 50,3.5136719 90.257812,26.757812 V 73.242187 L 50,96.486328 9.7421875,73.242187 V 26.757812 Z"
       id="path236"
       transform="matrix(0.88760282,0,0,0.8519141,5.3766555,6.0719778)" /><path
       style="color:#000000;fill:url(#linearGradient54634);fill-opacity:1;stroke-linejoin:round;-inkscape-stroke:none"
       d="M 48.576172,18.101562 21.316406,33.148437 c -0.693111,0.382981 -1.12329,1.112415 -1.123047,1.904297 v 30.09375 c 4.67e-4,0.791182 0.430548,1.519702 1.123047,1.902344 l 28.42526,16.294576 V 78.168142 L 24.542969,63.861328 V 36.335937 L 49.626953,22.490234 73.373084,35.601991 77.865832,33.111621 50.677734,18.101562 c -0.654036,-0.360908 -1.447526,-0.360908 -2.101562,0 z"
       id="path236-3"
       sodipodi:nodetypes="cccccccccccccc" /><path
       id="rect4662"
       style="opacity:1;fill:#00fe92;fill-opacity:1;stroke-width:5.34443;stroke-linejoin:round;stop-color:#000000"
       d="m 57.360447,59.504359 h 5.109903 l 0,16.180968 -5.109903,3.074319 z"
       sodipodi:nodetypes="ccccc" /><path
       id="rect4664"
       style="opacity:1;fill:#00fe92;fill-opacity:1;stroke-width:5.28129;stroke-linejoin:round;stop-color:#000000"
       d="m 66.338158,48.757192 4.84306,0 c -2e-5,83.488818 0,13.79837 0,21.687334 l -4.84306,2.913776 z"
       sodipodi:nodetypes="ccccc" /><path
       id="rect4666"
       style="opacity:1;fill:#00fe92;stroke-width:5.241;stroke-linejoin:round;stop-color:#000000;fill-opacity:1"
       d="m 74.696426,38.751556 h 5.200828 l 0,26.44906 -5.200828,2.810354 z"
       sodipodi:nodetypes="ccccc" /><circle
       style="opacity:1;fill:none;fill-opacity:1;stroke:#00d6c7;stroke-width:3.509;stroke-linecap:butt;stroke-linejoin:round;stroke-dasharray:none;stroke-opacity:1;stop-color:#000000"
       id="path4730"
       cx="35.049438"
       cy="44.169216"
       r="4.0564189" /><circle
       style="opacity:1;fill:none;fill-opacity:1;stroke:#00d6c7;stroke-width:3.509;stroke-linecap:butt;stroke-linejoin:round;stroke-dasharray:none;stroke-opacity:1;stop-color:#000000"
       id="path4730-5"
       cx="42.401138"
       cy="63.588428"
       r="4.0564189" /><circle
       style="fill:none;fill-opacity:1;stroke:#00d6c7;stroke-width:3.509;stroke-linecap:butt;stroke-linejoin:round;stroke-dasharray:none;stroke-opacity:1;stop-color:#000000"
       id="path4730-5-2"
       cx="57.360447"
       cy="48.534359"
       r="4.0564189" /><circle
       style="fill:none;fill-opacity:1;stroke:#00d6c7;stroke-width:3.509;stroke-linecap:butt;stroke-linejoin:round;stroke-dasharray:none;stroke-opacity:1;stop-color:#000000"
       id="path4730-3-3"
       cx="49.756798"
       cy="32.459644"
       r="4.0564189" /><path
       style="fill:none;stroke:#00d6c7;stroke-width:3;stroke-linecap:butt;stroke-linejoin:miter;stroke-dasharray:none;stroke-opacity:1"
       d="m 38.694382,44.984126 15.001321,2.680357"
       id="path57029"
       sodipodi:nodetypes="cc" /><path
       style="fill:none;stroke:#00d6c7;stroke-width:3;stroke-linecap:butt;stroke-linejoin:miter;stroke-dasharray:none;stroke-opacity:1"
       d="M 54.610652,51.470969 45.327508,61.07046"
       id="path57031"
       sodipodi:nodetypes="cc" /><path
       style="fill:none;stroke:#00d6c7;stroke-width:3;stroke-linecap:butt;stroke-linejoin:miter;stroke-dasharray:none;stroke-opacity:1"
       d="m 51.25015,36.037023 4.714624,8.894255"
       id="path57033"
       sodipodi:nodetypes="cc" /></g></svg>
